#!OML:ASF H:\BreakDance\Project 1\Capture day 1\Session 1\Male.ASF
:FULLY-SPECIFIED
:DEGREES
639
root -3.06143 12.5866 -5.32991 418.643 -18.3213 -33.7539
lowerback 23.3335 -5.9575 -4.81062
upperback 11.4459 -8.66355 1.99192
thorax 0.792707 -4.73438 6.67518
lowerneck -3.69052 -5.7688 -4.83356
upperneck -6.1978 -7.74729 28.2055
head 0.327645 -4.58638 9.43534
rclavicle -9.85972e-014 -4.92986e-014
rhumerus -67.4483 1.54479 -80.0324
rradius 18.3579
rwrist 12.4732
rhand -9.02949 -11.8092
rfingers 7.12502
rthumb 16.918 -41.0924
lclavicle -9.85972e-014 -4.92986e-014
lhumerus 29.4793 1.5422 43.6812
lradius 17.9613
lwrist -8.08562
lhand -41.1975 -5.58287
lfingers 7.12502
lthumb -14.122 23.9172
rfemur -99.8003 22.9829 50.9399
rtibia 73.0767
rfoot 4.89471 18.8786
rtoes 57.1358
lfemur -72.4436 15.2027 -40.4584
ltibia 79.7467
lfoot -18.1671 -15.4384
ltoes -45.9224
640
root -3.07758 12.6616 -5.35833 418.375 -17.6282 -33.4742
lowerback 23.7409 -5.84118 -4.85758
upperback 11.4033 -8.52706 2.25168
thorax 0.583384 -4.67194 7.01234
lowerneck -3.76734 -5.8471 -5.06712
upperneck -6.12111 -7.8353 27.7777
head 0.364764 -4.58659 9.31797
rclavicle -4.13472e-014 -4.6118e-014
rhumerus -67.6803 2.84567 -79.3699
rradius 17.9493
rwrist 13.9955
rhand -6.567 -11.4186
rfingers 7.12502
rthumb 19.2872 -40.4821
lclavicle -4.13472e-014 -4.6118e-014
lhumerus 31.7413 -5.80324 39.2116
lradius 19.5571
lwrist -4.03858
lhand -41.3078 -6.88358
lfingers 7.12502
lthumb -14.2283 22.6091
rfemur -99.9915 22.9149 50.2561
rtibia 72.2111
rfoot 5.82088 18.1128
rtoes 57.0502
lfemur -73.9499 16.8245 -40.2166
ltibia 82.4594
lfoot -18.5305 -14.9637
ltoes -45.7928
641
root -3.09069 12.7411 -5.39051 418.129 -16.934 -33.3646
lowerback 24.0732 -5.70548 -4.92183
upperback 11.433 -8.3705 2.4319
thorax 0.475577 -4.60369 7.25355
lowerneck -3.61031 -5.85088 -5.03759
upperneck -6.21773 -7.79182 27.3631
head 0.27586 -4.56403 9.17993
rclavicle 7.31528e-014 1.59028e-015
rhumerus -67.6096 3.88852 -78.0167
rradius 17.4663
rwrist 16.1524
rhand -4.62746 -11.0564
rfingers 7.12502
rthumb 21.1513 -39.9226
lclavicle 7.31528e-014 1.59028e-015
lhumerus 34.6229 -12.0807 34.3134
lradius 21.4858
lwrist -0.390876
lhand -40.9371 -7.96908
lfingers 7.12502
lthumb -13.871 21.5484
rfemur -99.9158 22.8061 49.9162
rtibia 71.2149
rfoot 6.92995 17.4767
rtoes 57.0176
lfemur -75.5207 18.4548 -39.603
ltibia 85.4075
lfoot -19.1897 -13.8786
ltoes -45.0402
642
root -3.10145 12.8264 -5.42606 417.91 -16.2102 -33.366
lowerback 24.2954 -5.59306 -4.98749
upperback 11.5208 -8.24277 2.52836
thorax 0.474966 -4.5523 7.39095
lowerneck -3.29521 -5.7817 -4.81058
upperneck -6.36064 -7.64674 27.0432
head 0.124652 -4.51704 9.05315
rclavicle -5.725e-014 2.06736e-014
rhumerus -67.1884 4.63693 -75.9484
rradius 16.9448
rwrist 18.6206
rhand -3.4828 -10.8636
rfingers 7.12502
rthumb 22.2505 -39.6028
lclavicle -5.725e-014 2.06736e-014
lhumerus 37.875 -17.3487 28.8359
lradius 23.9697
lwrist 2.9695
lhand -40.1341 -8.69656
lfingers 7.12502
lthumb -13.097 20.8722
rfemur -99.6178 22.6105 49.8027
rtibia 70.0262
rfoot 8.2537 17.1059
rtoes 57.0471
lfemur -77.1257 20.0729 -38.6459
ltibia 88.4352
lfoot -20.0199 -12.4679
ltoes -45.3326
643
root -3.10906 12.9192 -5.46449 417.728 -15.4278 -33.4348
lowerback 24.4062 -5.53872 -5.04057
upperback 11.6398 -8.18332 2.55715
thorax 0.559969 -4.53519 7.44403
lowerneck -2.9095 -5.65144 -4.4889
upperneck -6.40692 -7.44171 26.8849
head -0.016506 -4.44721 8.9686
rclavicle 2.8625e-014 -3.02153e-014
rhumerus -66.4149 5.11575 -73.2408
rradius 16.4467
rwrist 21.0338
rhand -3.27426 -10.921
rfingers 7.12502
rthumb 22.4507 -39.6361
lclavicle 2.8625e-014 -3.02153e-014
lhumerus 41.4756 -20.834 24.0422
lradius 25.9465
lwrist 4.79217
lhand -38.9675 -9.68196
lfingers 7.12502
lthumb -11.9723 19.9557
rfemur -99.1423 22.2977 49.8421
rtibia 68.6041
rfoot 9.84084 17.026
rtoes 57.1135
lfemur -78.7307 21.6585 -37.3482
ltibia 91.4305
lfoot -20.8876 -11.1234
ltoes -46.3263
